<?xml version="1.0" encoding="utf-8" standalone="no"?>
<!DOCTYPE svg PUBLIC "-//W3C//DTD SVG 1.1//EN"
  "http://www.w3.org/Graphics/SVG/1.1/DTD/svg11.dtd">
<svg xmlns:xlink="http://www.w3.org/1999/xlink" width="424.492812pt" height="372.634375pt" viewBox="0 0 424.492812 372.634375" xmlns="http://www.w3.org/2000/svg" version="1.1">
 <metadata>
  <rdf:RDF xmlns:dc="http://purl.org/dc/elements/1.1/" xmlns:cc="http://creativecommons.org/ns#" xmlns:rdf="http://www.w3.org/1999/02/22-rdf-syntax-ns#">
   <cc:Work>
    <dc:type rdf:resource="http://purl.org/dc/dcmitype/StillImage"/>
    <dc:date>2026-09-28T11:30:37.611477</dc:date>
    <dc:format>image/svg+xml</dc:format>
    <dc:creator>
     <cc:Agent>
      <dc:title>Matplotlib v3.10.0, https://matplotlib.org/</dc:title>
     </cc:Agent>
    </dc:creator>
   </cc:Work>
  </rdf:RDF>
 </metadata>
 <defs>
  <style type="text/css">*{stroke-linejoin: round; stroke-linecap: butt}</style>
 </defs>
 <g id="figure_1">
  <g id="patch_1">
   <path d="M 0 372.634375 
L 424.492812 372.634375 
L 424.492812 0 
L 0 0 
z
" style="fill: #ffffff"/>
  </g>
  <g id="axes_1">
   <g id="patch_2">
    <path d="M 43.78125 335.078125 
L 409.34125 335.078125 
L 409.34125 22.318125 
L 43.78125 22.318125 
z
" style="fill: #ffffff"/>
   </g>
   <g id="matplotlib.axis_1">
    <g id="xtick_1">
     <g id="line2d_1">
      <path d="M 43.78125 335.078125 
L 43.78125 22.318125 
" clip-path="url(#pfb8e9bd026)" style="fill: none; stroke: #b0b0b0; stroke-opacity: 0.2; stroke-width: 0.8; stroke-linecap: square"/>
     </g>
     <g id="line2d_2">
      <defs>
       <path id="m180c724564" d="M 0 0 
L 0 3.5 
" style="stroke: #000000; stroke-width: 0.8"/>
      </defs>
      <g>
       <use xlink:href="#m180c724564" x="43.78125" y="335.078125" style="stroke: #000000; stroke-width: 0.8"/>
      </g>
     </g>
     <g id="text_1">
      <text style="font-size: 10px; font-family: 'DejaVu Sans', 'Bitstream Vera Sans', 'Computer Modern Sans Serif', 'Lucida Grande', 'Verdana', 'Geneva', 'Lucid', 'Arial', 'Helvetica', 'Avant Garde', sans-serif; text-anchor: middle" x="43.78125" y="349.676562" transform="rotate(-0 43.78125 349.676562)">0.0</text>
     </g>
    </g>
    <g id="xtick_2">
     <g id="line2d_3">
      <path d="M 116.89325 335.078125 
L 116.89325 22.318125 
" clip-path="url(#pfb8e9bd026)" style="fill: none; stroke: #b0b0b0; stroke-opacity: 0.2; stroke-width: 0.8; stroke-linecap: square"/>
     </g>
     <g id="line2d_4">
      <g>
       <use xlink:href="#m180c724564" x="116.89325" y="335.078125" style="stroke: #000000; stroke-width: 0.8"/>
      </g>
     </g>
     <g id="text_2">
      <text style="font-size: 10px; font-family: 'DejaVu Sans', 'Bitstream Vera Sans', 'Computer Modern Sans Serif', 'Lucida Grande', 'Verdana', 'Geneva', 'Lucid', 'Arial', 'Helvetica', 'Avant Garde', sans-serif; text-anchor: middle" x="116.89325" y="349.676562" transform="rotate(-0 116.89325 349.676562)">0.2</text>
     </g>
    </g>
    <g id="xtick_3">
     <g id="line2d_5">
      <path d="M 190.00525 335.078125 
L 190.00525 22.318125 
" clip-path="url(#pfb8e9bd026)" style="fill: none; stroke: #b0b0b0; stroke-opacity: 0.2; stroke-width: 0.8; stroke-linecap: square"/>
     </g>
     <g id="line2d_6">
      <g>
       <use xlink:href="#m180c724564" x="190.00525" y="335.078125" style="stroke: #000000; stroke-width: 0.8"/>
      </g>
     </g>
     <g id="text_3">
      <text style="font-size: 10px; font-family: 'DejaVu Sans', 'Bitstream Vera Sans', 'Computer Modern Sans Serif', 'Lucida Grande', 'Verdana', 'Geneva', 'Lucid', 'Arial', 'Helvetica', 'Avant Garde', sans-serif; text-anchor: middle" x="190.00525" y="349.676562" transform="rotate(-0 190.00525 349.676562)">0.4</text>
     </g>
    </g>
    <g id="xtick_4">
     <g id="line2d_7">
      <path d="M 263.11725 335.078125 
L 263.11725 22.318125 
" clip-path="url(#pfb8e9bd026)" style="fill: none; stroke: #b0b0b0; stroke-opacity: 0.2; stroke-width: 0.8; stroke-linecap: square"/>
     </g>
     <g id="line2d_8">
      <g>
       <use xlink:href="#m180c724564" x="263.11725" y="335.078125" style="stroke: #000000; stroke-width: 0.8"/>
      </g>
     </g>
     <g id="text_4">
      <text style="font-size: 10px; font-family: 'DejaVu Sans', 'Bitstream Vera Sans', 'Computer Modern Sans Serif', 'Lucida Grande', 'Verdana', 'Geneva', 'Lucid', 'Arial', 'Helvetica', 'Avant Garde', sans-serif; text-anchor: middle" x="263.11725" y="349.676562" transform="rotate(-0 263.11725 349.676562)">0.6</text>
     </g>
    </g>
    <g id="xtick_5">
     <g id="line2d_9">
      <path d="M 336.22925 335.078125 
L 336.22925 22.318125 
" clip-path="url(#pfb8e9bd026)" style="fill: none; stroke: #b0b0b0; stroke-opacity: 0.2; stroke-width: 0.8; stroke-linecap: square"/>
     </g>
     <g id="line2d_10">
      <g>
       <use xlink:href="#m180c724564" x="336.22925" y="335.078125" style="stroke: #000000; stroke-width: 0.8"/>
      </g>
     </g>
     <g id="text_5">
      <text style="font-size: 10px; font-family: 'DejaVu Sans', 'Bitstream Vera Sans', 'Computer Modern Sans Serif', 'Lucida Grande', 'Verdana', 'Geneva', 'Lucid', 'Arial', 'Helvetica', 'Avant Garde', sans-serif; text-anchor: middle" x="336.22925" y="349.676562" transform="rotate(-0 336.22925 349.676562)">0.8</text>
     </g>
    </g>
    <g id="xtick_6">
     <g id="line2d_11">
      <path d="M 409.34125 335.078125 
L 409.34125 22.318125 
" clip-path="url(#pfb8e9bd026)" style="fill: none; stroke: #b0b0b0; stroke-opacity: 0.2; stroke-width: 0.8; stroke-linecap: square"/>
     </g>
     <g id="line2d_12">
      <g>
       <use xlink:href="#m180c724564" x="409.34125" y="335.078125" style="stroke: #000000; stroke-width: 0.8"/>
      </g>
     </g>
     <g id="text_6">
      <text style="font-size: 10px; font-family: 'DejaVu Sans', 'Bitstream Vera Sans', 'Computer Modern Sans Serif', 'Lucida Grande', 'Verdana', 'Geneva', 'Lucid', 'Arial', 'Helvetica', 'Avant Garde', sans-serif; text-anchor: middle" x="409.34125" y="349.676562" transform="rotate(-0 409.34125 349.676562)">1.0</text>
     </g>
    </g>
    <g id="text_7">
     <text style="font-size: 10px; font-family: 'DejaVu Sans', 'Bitstream Vera Sans', 'Computer Modern Sans Serif', 'Lucida Grande', 'Verdana', 'Geneva', 'Lucid', 'Arial', 'Helvetica', 'Avant Garde', sans-serif; text-anchor: middle" x="226.56125" y="363.354687" transform="rotate(-0 226.56125 363.354687)">Mean predicted probability</text>
    </g>
   </g>
   <g id="matplotlib.axis_2">
    <g id="ytick_1">
     <g id="line2d_13">
      <path d="M 43.78125 335.078125 
L 409.34125 335.078125 
" clip-path="url(#pfb8e9bd026)" style="fill: none; stroke: #b0b0b0; stroke-opacity: 0.2; stroke-width: 0.8; stroke-linecap: square"/>
     </g>
     <g id="line2d_14">
      <defs>
       <path id="m9a435a7a8e" d="M 0 0 
L -3.5 0 
" style="stroke: #000000; stroke-width: 0.8"/>
      </defs>
      <g>
       <use xlink:href="#m9a435a7a8e" x="43.78125" y="335.078125" style="stroke: #000000; stroke-width: 0.8"/>
      </g>
     </g>
     <g id="text_8">
      <text style="font-size: 10px; font-family: 'DejaVu Sans', 'Bitstream Vera Sans', 'Computer Modern Sans Serif', 'Lucida Grande', 'Verdana', 'Geneva', 'Lucid', 'Arial', 'Helvetica', 'Avant Garde', sans-serif; text-anchor: end" x="36.78125" y="338.877344" transform="rotate(-0 36.78125 338.877344)">0.0</text>
     </g>
    </g>
    <g id="ytick_2">
     <g id="line2d_15">
      <path d="M 43.78125 272.526125 
L 409.34125 272.526125 
" clip-path="url(#pfb8e9bd026)" style="fill: none; stroke: #b0b0b0; stroke-opacity: 0.2; stroke-width: 0.8; stroke-linecap: square"/>
     </g>
     <g id="line2d_16">
      <g>
       <use xlink:href="#m9a435a7a8e" x="43.78125" y="272.526125" style="stroke: #000000; stroke-width: 0.8"/>
      </g>
     </g>
     <g id="text_9">
      <text style="font-size: 10px; font-family: 'DejaVu Sans', 'Bitstream Vera Sans', 'Computer Modern Sans Serif', 'Lucida Grande', 'Verdana', 'Geneva', 'Lucid', 'Arial', 'Helvetica', 'Avant Garde', sans-serif; text-anchor: end" x="36.78125" y="276.325344" transform="rotate(-0 36.78125 276.325344)">0.2</text>
     </g>
    </g>
    <g id="ytick_3">
     <g id="line2d_17">
      <path d="M 43.78125 209.974125 
L 409.34125 209.974125 
" clip-path="url(#pfb8e9bd026)" style="fill: none; stroke: #b0b0b0; stroke-opacity: 0.2; stroke-width: 0.8; stroke-linecap: square"/>
     </g>
     <g id="line2d_18">
      <g>
       <use xlink:href="#m9a435a7a8e" x="43.78125" y="209.974125" style="stroke: #000000; stroke-width: 0.8"/>
      </g>
     </g>
     <g id="text_10">
      <text style="font-size: 10px; font-family: 'DejaVu Sans', 'Bitstream Vera Sans', 'Computer Modern Sans Serif', 'Lucida Grande', 'Verdana', 'Geneva', 'Lucid', 'Arial', 'Helvetica', 'Avant Garde', sans-serif; text-anchor: end" x="36.78125" y="213.773344" transform="rotate(-0 36.78125 213.773344)">0.4</text>
     </g>
    </g>
    <g id="ytick_4">
     <g id="line2d_19">
      <path d="M 43.78125 147.422125 
L 409.34125 147.422125 
" clip-path="url(#pfb8e9bd026)" style="fill: none; stroke: #b0b0b0; stroke-opacity: 0.2; stroke-width: 0.8; stroke-linecap: square"/>
     </g>
     <g id="line2d_20">
      <g>
       <use xlink:href="#m9a435a7a8e" x="43.78125" y="147.422125" style="stroke: #000000; stroke-width: 0.8"/>
      </g>
     </g>
     <g id="text_11">
      <text style="font-size: 10px; font-family: 'DejaVu Sans', 'Bitstream Vera Sans', 'Computer Modern Sans Serif', 'Lucida Grande', 'Verdana', 'Geneva', 'Lucid', 'Arial', 'Helvetica', 'Avant Garde', sans-serif; text-anchor: end" x="36.78125" y="151.221344" transform="rotate(-0 36.78125 151.221344)">0.6</text>
     </g>
    </g>
    <g id="ytick_5">
     <g id="line2d_21">
      <path d="M 43.78125 84.870125 
L 409.34125 84.870125 
" clip-path="url(#pfb8e9bd026)" style="fill: none; stroke: #b0b0b0; stroke-opacity: 0.2; stroke-width: 0.8; stroke-linecap: square"/>
     </g>
     <g id="line2d_22">
      <g>
       <use xlink:href="#m9a435a7a8e" x="43.78125" y="84.870125" style="stroke: #000000; stroke-width: 0.8"/>
      </g>
     </g>
     <g id="text_12">
      <text style="font-size: 10px; font-family: 'DejaVu Sans', 'Bitstream Vera Sans', 'Computer Modern Sans Serif', 'Lucida Grande', 'Verdana', 'Geneva', 'Lucid', 'Arial', 'Helvetica', 'Avant Garde', sans-serif; text-anchor: end" x="36.78125" y="88.669344" transform="rotate(-0 36.78125 88.669344)">0.8</text>
     </g>
    </g>
    <g id="ytick_6">
     <g id="line2d_23">
      <path d="M 43.78125 22.318125 
L 409.34125 22.318125 
" clip-path="url(#pfb8e9bd026)" style="fill: none; stroke: #b0b0b0; stroke-opacity: 0.2; stroke-width: 0.8; stroke-linecap: square"/>
     </g>
     <g id="line2d_24">
      <g>
       <use xlink:href="#m9a435a7a8e" x="43.78125" y="22.318125" style="stroke: #000000; stroke-width: 0.8"/>
      </g>
     </g>
     <g id="text_13">
      <text style="font-size: 10px; font-family: 'DejaVu Sans', 'Bitstream Vera Sans', 'Computer Modern Sans Serif', 'Lucida Grande', 'Verdana', 'Geneva', 'Lucid', 'Arial', 'Helvetica', 'Avant Garde', sans-serif; text-anchor: end" x="36.78125" y="26.117344" transform="rotate(-0 36.78125 26.117344)">1.0</text>
     </g>
    </g>
    <g id="text_14">
     <text style="font-size: 10px; font-family: 'DejaVu Sans', 'Bitstream Vera Sans', 'Computer Modern Sans Serif', 'Lucida Grande', 'Verdana', 'Geneva', 'Lucid', 'Arial', 'Helvetica', 'Avant Garde', sans-serif; text-anchor: middle" x="14.798438" y="178.698125" transform="rotate(-90 14.798438 178.698125)">Observed reference-positive fraction</text>
    </g>
   </g>
   <g id="line2d_25">
    <path d="M 43.78125 335.078125 
L 409.34125 22.318125 
" clip-path="url(#pfb8e9bd026)" style="fill: none; stroke-dasharray: 5.55,2.4; stroke-dashoffset: 0; stroke: #1f77b4; stroke-width: 1.5"/>
   </g>
   <g id="line2d_26">
    <path d="M 48.639781 328.842786 
L 79.31471 302.827899 
L 104.052216 290.359407 
L 128.667197 270.120279 
L 153.738243 256.480885 
L 177.690816 230.533174 
L 201.824012 203.904112 
L 226.178132 181.937635 
L 250.947476 171.186422 
L 274.818238 140.063066 
L 298.030234 117.84733 
L 323.467018 93.497987 
L 343.015813 89.776164 
L 364.666142 147.422125 
" clip-path="url(#pfb8e9bd026)" style="fill: none; stroke: #ff7f0e; stroke-width: 1.5; stroke-linecap: square"/>
    <defs>
     <path id="mab045d0192" d="M 0 3 
C 0.795609 3 1.55874 2.683901 2.12132 2.12132 
C 2.683901 1.55874 3 0.795609 3 0 
C 3 -0.795609 2.683901 -1.55874 2.12132 -2.12132 
C 1.55874 -2.683901 0.795609 -3 0 -3 
C -0.795609 -3 -1.55874 -2.683901 -2.12132 -2.12132 
C -2.683901 -1.55874 -3 -0.795609 -3 0 
C -3 0.795609 -2.683901 1.55874 -2.12132 2.12132 
C -1.55874 2.683901 -0.795609 3 0 3 
z
" style="stroke: #ff7f0e"/>
    </defs>
    <g clip-path="url(#pfb8e9bd026)">
     <use xlink:href="#mab045d0192" x="48.639781" y="328.842786" style="fill: #ff7f0e; stroke: #ff7f0e"/>
     <use xlink:href="#mab045d0192" x="79.31471" y="302.827899" style="fill: #ff7f0e; stroke: #ff7f0e"/>
     <use xlink:href="#mab045d0192" x="104.052216" y="290.359407" style="fill: #ff7f0e; stroke: #ff7f0e"/>
     <use xlink:href="#mab045d0192" x="128.667197" y="270.120279" style="fill: #ff7f0e; stroke: #ff7f0e"/>
     <use xlink:href="#mab045d0192" x="153.738243" y="256.480885" style="fill: #ff7f0e; stroke: #ff7f0e"/>
     <use xlink:href="#mab045d0192" x="177.690816" y="230.533174" style="fill: #ff7f0e; stroke: #ff7f0e"/>
     <use xlink:href="#mab045d0192" x="201.824012" y="203.904112" style="fill: #ff7f0e; stroke: #ff7f0e"/>
     <use xlink:href="#mab045d0192" x="226.178132" y="181.937635" style="fill: #ff7f0e; stroke: #ff7f0e"/>
     <use xlink:href="#mab045d0192" x="250.947476" y="171.186422" style="fill: #ff7f0e; stroke: #ff7f0e"/>
     <use xlink:href="#mab045d0192" x="274.818238" y="140.063066" style="fill: #ff7f0e; stroke: #ff7f0e"/>
     <use xlink:href="#mab045d0192" x="298.030234" y="117.84733" style="fill: #ff7f0e; stroke: #ff7f0e"/>
     <use xlink:href="#mab045d0192" x="323.467018" y="93.497987" style="fill: #ff7f0e; stroke: #ff7f0e"/>
     <use xlink:href="#mab045d0192" x="343.015813" y="89.776164" style="fill: #ff7f0e; stroke: #ff7f0e"/>
     <use xlink:href="#mab045d0192" x="364.666142" y="147.422125" style="fill: #ff7f0e; stroke: #ff7f0e"/>
    </g>
   </g>
   <g id="line2d_27">
    <path d="M 49.559513 329.855605 
L 78.763603 309.498135 
L 103.75402 296.270166 
L 128.9223 272.276167 
L 153.048977 267.295039 
L 177.729712 234.371685 
L 201.878206 207.17194 
L 226.135977 181.071515 
L 250.642685 167.393547 
L 274.738361 132.960242 
L 298.430636 115.995033 
L 322.568342 85.355024 
L 344.522449 139.603125 
L 362.640752 22.318125 
" clip-path="url(#pfb8e9bd026)" style="fill: none; stroke: #2ca02c; stroke-width: 1.5; stroke-linecap: square"/>
    <defs>
     <path id="m23aba384a7" d="M 0 3 
C 0.795609 3 1.55874 2.683901 2.12132 2.12132 
C 2.683901 1.55874 3 0.795609 3 0 
C 3 -0.795609 2.683901 -1.55874 2.12132 -2.12132 
C 1.55874 -2.683901 0.795609 -3 0 -3 
C -0.795609 -3 -1.55874 -2.683901 -2.12132 -2.12132 
C -2.683901 -1.55874 -3 -0.795609 -3 0 
C -3 0.795609 -2.683901 1.55874 -2.12132 2.12132 
C -1.55874 2.683901 -0.795609 3 0 3 
z
" style="stroke: #2ca02c"/>
    </defs>
    <g clip-path="url(#pfb8e9bd026)">
     <use xlink:href="#m23aba384a7" x="49.559513" y="329.855605" style="fill: #2ca02c; stroke: #2ca02c"/>
     <use xlink:href="#m23aba384a7" x="78.763603" y="309.498135" style="fill: #2ca02c; stroke: #2ca02c"/>
     <use xlink:href="#m23aba384a7" x="103.75402" y="296.270166" style="fill: #2ca02c; stroke: #2ca02c"/>
     <use xlink:href="#m23aba384a7" x="128.9223" y="272.276167" style="fill: #2ca02c; stroke: #2ca02c"/>
     <use xlink:href="#m23aba384a7" x="153.048977" y="267.295039" style="fill: #2ca02c; stroke: #2ca02c"/>
     <use xlink:href="#m23aba384a7" x="177.729712" y="234.371685" style="fill: #2ca02c; stroke: #2ca02c"/>
     <use xlink:href="#m23aba384a7" x="201.878206" y="207.17194" style="fill: #2ca02c; stroke: #2ca02c"/>
     <use xlink:href="#m23aba384a7" x="226.135977" y="181.071515" style="fill: #2ca02c; stroke: #2ca02c"/>
     <use xlink:href="#m23aba384a7" x="250.642685" y="167.393547" style="fill: #2ca02c; stroke: #2ca02c"/>
     <use xlink:href="#m23aba384a7" x="274.738361" y="132.960242" style="fill: #2ca02c; stroke: #2ca02c"/>
     <use xlink:href="#m23aba384a7" x="298.430636" y="115.995033" style="fill: #2ca02c; stroke: #2ca02c"/>
     <use xlink:href="#m23aba384a7" x="322.568342" y="85.355024" style="fill: #2ca02c; stroke: #2ca02c"/>
     <use xlink:href="#m23aba384a7" x="344.522449" y="139.603125" style="fill: #2ca02c; stroke: #2ca02c"/>
     <use xlink:href="#m23aba384a7" x="362.640752" y="22.318125" style="fill: #2ca02c; stroke: #2ca02c"/>
    </g>
   </g>
   <g id="line2d_28">
    <path d="M 49.789249 330.143008 
L 79.068103 307.652757 
L 104.076705 295.596635 
L 128.898184 269.184133 
L 153.380294 257.999831 
L 177.59676 224.488954 
L 201.363866 210.455294 
L 226.632395 183.024844 
L 250.569645 153.591244 
L 274.374957 120.779606 
L 299.284178 103.90769 
L 322.353209 83.070067 
L 344.959186 106.3432 
L 366.288153 22.318125 
" clip-path="url(#pfb8e9bd026)" style="fill: none; stroke: #d62728; stroke-width: 1.5; stroke-linecap: square"/>
    <defs>
     <path id="m4b77a56615" d="M 0 3 
C 0.795609 3 1.55874 2.683901 2.12132 2.12132 
C 2.683901 1.55874 3 0.795609 3 0 
C 3 -0.795609 2.683901 -1.55874 2.12132 -2.12132 
C 1.55874 -2.683901 0.795609 -3 0 -3 
C -0.795609 -3 -1.55874 -2.683901 -2.12132 -2.12132 
C -2.683901 -1.55874 -3 -0.795609 -3 0 
C -3 0.795609 -2.683901 1.55874 -2.12132 2.12132 
C -1.55874 2.683901 -0.795609 3 0 3 
z
" style="stroke: #d62728"/>
    </defs>
    <g clip-path="url(#pfb8e9bd026)">
     <use xlink:href="#m4b77a56615" x="49.789249" y="330.143008" style="fill: #d62728; stroke: #d62728"/>
     <use xlink:href="#m4b77a56615" x="79.068103" y="307.652757" style="fill: #d62728; stroke: #d62728"/>
     <use xlink:href="#m4b77a56615" x="104.076705" y="295.596635" style="fill: #d62728; stroke: #d62728"/>
     <use xlink:href="#m4b77a56615" x="128.898184" y="269.184133" style="fill: #d62728; stroke: #d62728"/>
     <use xlink:href="#m4b77a56615" x="153.380294" y="257.999831" style="fill: #d62728; stroke: #d62728"/>
     <use xlink:href="#m4b77a56615" x="177.59676" y="224.488954" style="fill: #d62728; stroke: #d62728"/>
     <use xlink:href="#m4b77a56615" x="201.363866" y="210.455294" style="fill: #d62728; stroke: #d62728"/>
     <use xlink:href="#m4b77a56615" x="226.632395" y="183.024844" style="fill: #d62728; stroke: #d62728"/>
     <use xlink:href="#m4b77a56615" x="250.569645" y="153.591244" style="fill: #d62728; stroke: #d62728"/>
     <use xlink:href="#m4b77a56615" x="274.374957" y="120.779606" style="fill: #d62728; stroke: #d62728"/>
     <use xlink:href="#m4b77a56615" x="299.284178" y="103.90769" style="fill: #d62728; stroke: #d62728"/>
     <use xlink:href="#m4b77a56615" x="322.353209" y="83.070067" style="fill: #d62728; stroke: #d62728"/>
     <use xlink:href="#m4b77a56615" x="344.959186" y="106.3432" style="fill: #d62728; stroke: #d62728"/>
     <use xlink:href="#m4b77a56615" x="366.288153" y="22.318125" style="fill: #d62728; stroke: #d62728"/>
    </g>
   </g>
   <g id="patch_3">
    <path d="M 43.78125 335.078125 
L 43.78125 22.318125 
" style="fill: none; stroke: #000000; stroke-width: 0.8; stroke-linejoin: miter; stroke-linecap: square"/>
   </g>
   <g id="patch_4">
    <path d="M 43.78125 335.078125 
L 409.34125 335.078125 
" style="fill: none; stroke: #000000; stroke-width: 0.8; stroke-linejoin: miter; stroke-linecap: square"/>
   </g>
   <g id="text_15">
    <text style="font-size: 12px; font-family: 'DejaVu Sans', 'Bitstream Vera Sans', 'Computer Modern Sans Serif', 'Lucida Grande', 'Verdana', 'Geneva', 'Lucid', 'Arial', 'Helvetica', 'Avant Garde', sans-serif; text-anchor: middle" x="226.56125" y="16.318125" transform="rotate(-0 226.56125 16.318125)">densenet121: pleural effusion - nih</text>
   </g>
   <g id="legend_1">
    <g id="patch_5">
     <path d="M 49.38125 75.688125 
L 187.57375 75.688125 
Q 189.17375 75.688125 189.17375 74.088125 
L 189.17375 27.918125 
Q 189.17375 26.318125 187.57375 26.318125 
L 49.38125 26.318125 
Q 47.78125 26.318125 47.78125 27.918125 
L 47.78125 74.088125 
Q 47.78125 75.688125 49.38125 75.688125 
z
" style="fill: #ffffff; opacity: 0.8; stroke: #cccccc; stroke-linejoin: miter"/>
    </g>
    <g id="line2d_29">
     <path d="M 50.98125 32.796875 
L 58.98125 32.796875 
L 66.98125 32.796875 
" style="fill: none; stroke-dasharray: 5.55,2.4; stroke-dashoffset: 0; stroke: #1f77b4; stroke-width: 1.5"/>
    </g>
    <g id="text_16">
     <text style="font-size: 8px; font-family: 'DejaVu Sans', 'Bitstream Vera Sans', 'Computer Modern Sans Serif', 'Lucida Grande', 'Verdana', 'Geneva', 'Lucid', 'Arial', 'Helvetica', 'Avant Garde', sans-serif; text-anchor: start" x="73.38125" y="35.596875" transform="rotate(-0 73.38125 35.596875)">Perfect calibration</text>
    </g>
    <g id="line2d_30">
     <path d="M 50.98125 44.539375 
L 58.98125 44.539375 
L 66.98125 44.539375 
" style="fill: none; stroke: #ff7f0e; stroke-width: 1.5; stroke-linecap: square"/>
     <g>
      <use xlink:href="#mab045d0192" x="58.98125" y="44.539375" style="fill: #ff7f0e; stroke: #ff7f0e"/>
     </g>
    </g>
    <g id="text_17">
     <text style="font-size: 8px; font-family: 'DejaVu Sans', 'Bitstream Vera Sans', 'Computer Modern Sans Serif', 'Lucida Grande', 'Verdana', 'Geneva', 'Lucid', 'Arial', 'Helvetica', 'Avant Garde', sans-serif; text-anchor: start" x="73.38125" y="47.339375" transform="rotate(-0 73.38125 47.339375)">Raw, seed 17</text>
    </g>
    <g id="line2d_31">
     <path d="M 50.98125 56.281875 
L 58.98125 56.281875 
L 66.98125 56.281875 
" style="fill: none; stroke: #2ca02c; stroke-width: 1.5; stroke-linecap: square"/>
     <g>
      <use xlink:href="#m23aba384a7" x="58.98125" y="56.281875" style="fill: #2ca02c; stroke: #2ca02c"/>
     </g>
    </g>
    <g id="text_18">
     <text style="font-size: 8px; font-family: 'DejaVu Sans', 'Bitstream Vera Sans', 'Computer Modern Sans Serif', 'Lucida Grande', 'Verdana', 'Geneva', 'Lucid', 'Arial', 'Helvetica', 'Avant Garde', sans-serif; text-anchor: start" x="73.38125" y="59.081875" transform="rotate(-0 73.38125 59.081875)">Temperature, seed 17</text>
    </g>
    <g id="line2d_32">
     <path d="M 50.98125 68.024375 
L 58.98125 68.024375 
L 66.98125 68.024375 
" style="fill: none; stroke: #d62728; stroke-width: 1.5; stroke-linecap: square"/>
     <g>
      <use xlink:href="#m4b77a56615" x="58.98125" y="68.024375" style="fill: #d62728; stroke: #d62728"/>
     </g>
    </g>
    <g id="text_19">
     <text style="font-size: 8px; font-family: 'DejaVu Sans', 'Bitstream Vera Sans', 'Computer Modern Sans Serif', 'Lucida Grande', 'Verdana', 'Geneva', 'Lucid', 'Arial', 'Helvetica', 'Avant Garde', sans-serif; text-anchor: start" x="73.38125" y="70.824375" transform="rotate(-0 73.38125 70.824375)">Calibrated 3-seed ensemble</text>
    </g>
   </g>
  </g>
 </g>
 <defs>
  <clipPath id="pfb8e9bd026">
   <rect x="43.78125" y="22.318125" width="365.56" height="312.76"/>
  </clipPath>
 </defs>
</svg>
